<svg xmlns="http://www.w3.org/2000/svg">
  <path fill="#000000" d="M 155.707 30.955 L 188.99 30.955 L 188.99 38.17 L 155.707 38.17 L 155.707 30.955 Z M 147.561 38.17 L 147.561 30.955 L 151.518 30.955 L 151.518 38.17 L 147.561 38.17 Z M 19.551 34.912 L 60.98 34.912 L 60.98 38.17 L 19.551 38.17 L 19.551 34.912 Z M 62.376 30.955 L 103.572 30.955 L 103.572 32.119 L 62.376 32.119 L 62.376 30.955 Z M 62.376 9.775 L 87.978 9.775 L 87.978 28.395 L 62.376 28.395 L 62.376 9.775 Z M 168.508 9.775 L 188.99 9.775 L 188.99 28.395 L 168.508 28.395 L 168.508 9.775 Z M 125.683 28.395 L 125.683 9.775 L 146.165 9.775 L 146.165 28.395 L 125.683 28.395 Z M 104.736 9.775 L 125.218 9.775 L 125.218 28.395 L 104.736 28.395 L 104.736 9.775 Z M 103.572 9.775 L 103.572 28.395 L 88.211 28.395 L 88.211 9.775 L 103.572 9.775 Z M 103.572 38.17 L 62.376 38.17 L 62.376 34.912 L 103.572 34.912 L 103.572 38.17 Z M 104.736 34.912 L 115.442 34.912 L 115.442 32.352 L 104.736 32.352 L 104.736 30.955 L 146.165 30.955 L 146.165 38.17 L 104.736 38.17 L 104.736 34.912 Z M 147.561 28.395 L 147.561 9.775 L 168.043 9.775 L 168.043 28.395 L 147.561 28.395 Z M 200.86 28.395 L 190.387 28.395 L 190.387 9.775 L 200.86 9.775 L 200.86 28.395 Z M 155.707 38.869 L 209.472 38.869 L 209.472 38.17 L 190.154 38.17 L 190.154 30.955 L 201.093 30.955 L 201.093 28.628 L 201.093 28.395 L 201.093 9.775 L 201.093 7.448 L 201.093 7.215 L 201.093 6.517 L 169.672 6.517 L 169.672 4.655 L 155.707 4.655 L 155.707 0 L 151.751 0 L 151.751 4.655 L 137.786 4.655 L 137.786 6.517 L 50.041 6.517 L 50.041 7.215 L 50.506 7.215 L 50.506 9.775 L 61.213 9.775 L 61.213 28.395 L 50.506 28.395 L 50.506 30.955 L 61.213 30.955 L 61.213 32.119 L 7.681 32.119 L 7.681 34.679 L 18.387 34.679 L 18.387 37.938 L 0 37.938 L 0 38.636 L 151.518 38.636" style="stroke-width: 2.327px;"></path>
</svg>