<svg version="1.1" xmlns="http://www.w3.org/2000/svg" style="display: block;" viewBox="0 0 2048 2048" width="1024" height="1024" preserveAspectRatio="none">
<path transform="translate(0,0)" fill="rgb(0,0,0)" d="M 0 323.992 C 10.7075 322.974 102.681 321.852 107.464 325.277 C 113.114 335.321 118.549 345.32 124.402 355.312 C 136.956 376.741 127.517 385.504 108.866 397.289 C 107.07 419.126 103.387 443.739 103.676 465.512 C 103.845 478.278 113.67 494.432 112.35 507.812 C 110.481 527.607 96.9412 532.147 101.074 554.953 C 102.943 565.265 112.519 571.474 114.617 578.119 C 117.767 588.092 120.198 602.876 122.537 613.506 C 119.327 621.513 113.283 630.362 112.964 637.927 C 112.349 659.007 124.006 678.979 129.466 699 C 131.637 706.964 131.674 723.128 135.333 729.336 C 144.68 745.196 150.427 755.364 156.586 772.955 C 149.298 797.595 140.086 805.583 153.838 831.142 C 156.87 836.778 165.293 850.163 169.978 853.383 C 187.103 865.157 212.466 859.38 215.768 886.416 C 218.287 907.032 212.32 921.725 214.727 943.8 C 228.021 960.128 229.946 959.332 219.815 980.215 C 223.851 982.216 228.741 984.812 232.834 986.482 C 241.011 982.197 248.176 971.067 255.24 964.509 C 260.659 959.478 267.281 953.716 272.016 948.206 C 269.909 944.243 260.465 930.506 262.898 927.176 C 267.265 921.197 274.956 904.864 283.264 906.235 C 291.741 913.864 288.24 941.82 297.543 948.127 C 304.972 946.385 302.024 922.236 301.988 915.467 C 309.872 908.732 318.404 901.606 322.172 891.625 C 323.962 886.884 325.34 881.322 328.309 877.178 C 331.59 872.598 360.272 851.15 364.446 851.838 C 367.879 852.404 371.789 854.798 374.942 856.312 C 381.587 836.517 384.56 831.065 406.437 833.301 C 419.787 834.665 424.553 833.991 434.188 844.78 C 435.474 877.937 451.34 897.492 474.229 919.726 C 478.238 923.62 486.782 930.466 491.539 933.157 C 494.023 949.403 492.405 955.526 492.061 971.428 C 497.276 980.009 499.249 986.154 502.683 995.378 C 511.385 1018.75 500.184 1024.74 480.821 1035.42 C 478.319 1036.79 475.778 1038.08 473.2 1039.29 C 481.97 1055.05 494.308 1077.78 485.007 1094.87 C 477.204 1099.97 465.976 1105.75 464.128 1115.57 C 467.635 1118.96 469.192 1115.94 470.602 1118.31 C 475.418 1126.41 470.668 1138.47 482.174 1141.89 C 488.699 1136.85 479.703 1117.71 485.888 1109.61 C 490.764 1108.81 490.769 1112.66 495.147 1112.92 C 497.535 1113.06 500.878 1107.75 503.319 1110.55 C 519.026 1128.6 508.325 1150.02 518.009 1171.17 C 519.314 1134.79 512.543 1098.29 511.575 1061.99 C 511.504 1059.31 512.95 1054.19 513.738 1051.49 C 522.917 1050.25 528.498 1049.93 537.853 1049.98 C 538.264 1075.6 539.595 1070.57 550.532 1090.85 L 548.037 1102.32 C 543.271 1107.56 541.509 1108.81 535.876 1112.97 C 537.297 1122.08 543.289 1140.05 542.74 1147.07 C 540.825 1171.55 536.082 1189.95 537.45 1215.04 C 539.391 1250.61 554.889 1260.63 581.161 1280.17 C 586.816 1294.89 589.766 1302.32 592.709 1317.95 C 599.36 1314.36 621.598 1301.49 626.846 1300.38 L 627.147 1299.03 C 619.52 1287.3 610.748 1277.33 602.486 1266.44 C 612.978 1251.37 618.367 1239.43 612.277 1221.22 L 613.134 1219.89 C 618.127 1212.26 628.32 1203.48 631.441 1196.38 C 637.75 1182.03 635.389 1162.06 637.975 1147.38 C 642.414 1122.19 642.768 1110.57 638.177 1085.31 C 642.17 1087.28 645.702 1089.49 650.045 1089.87 C 653.684 1087.32 663.225 1057.53 663.42 1052.42 C 664.738 1017.96 656.811 984.317 658.147 948.772 C 664.199 944.325 666.899 942.507 673.503 939.001 C 680.536 946.897 687.256 958.166 692.827 967.293 C 684.338 983.511 689.127 1000.42 688.02 1020.11 C 696.565 998.241 706.375 977.962 726.889 965.665 C 726.783 953.781 733.511 930.728 737.979 919.425 C 723.475 909.266 716.48 911.938 719.477 892.085 C 726.26 888.53 733.817 884.835 739.015 879.109 C 742.267 861.94 737.78 833.28 737.041 814.4 L 746.242 809.811 C 744.609 801.46 743.343 793.732 741.846 785.151 C 740.334 776.483 732.933 757.749 737.187 749.099 C 740.002 743.375 752.408 742.95 750.103 731.201 C 748.928 725.214 747.732 720.492 749.355 714.694 C 757.969 705.571 766.54 716.383 757.174 693.529 C 754.427 686.829 773.629 655.696 777.992 649.624 C 759.035 631.937 756.287 630.973 774.625 610.009 C 785.412 597.677 777.1 560.463 794.404 555.635 C 805.119 557.952 804.958 576.764 812.667 580.033 C 827.362 567.557 807.633 542.659 841.583 542.836 C 838.304 521.532 830.882 469.241 871.434 489.423 C 885.59 496.468 897.128 504.076 905.963 517.315 C 902.24 532.35 901.917 539.724 902.938 555.231 C 903.31 560.866 899.81 571.408 898.024 577.08 C 918.146 591.168 916.871 595.134 922.712 617.785 C 926.604 629.071 930.673 640.884 934.427 652.156 C 937.365 660.979 952.361 664.82 952.379 675.423 C 952.416 697.274 945.45 712.635 947.216 735.759 C 947.407 736.078 947.599 736.397 947.79 736.716 C 950.652 743.312 964.826 752.65 961.558 760.626 C 953.322 780.725 959.027 779.242 969.23 794.695 C 972.29 799.329 967.398 818.688 973.066 824.83 C 983.585 842.836 1006.8 861.19 1012.72 881.878 C 1013.82 885.748 1010.71 900.948 1011.15 906.091 C 1011.95 915.535 1016.46 924.495 1013.96 933.658 C 1010.09 947.834 1004.8 954.413 1013.17 968.77 C 1014.44 970.957 1015.44 971.603 1017.59 973.007 C 1029.98 974.634 1031.78 958.721 1043.6 957.75 C 1062.04 966.146 1047.18 1034.19 1043.2 1050.92 C 1041.97 1056.11 1030.71 1062.67 1031.65 1070.18 C 1039.41 1079.18 1052.92 1080.86 1051.76 1096.73 C 1050.98 1107.55 1040.92 1107.42 1037.45 1114.79 C 1037.43 1118.31 1037.96 1120.55 1040.86 1122.8 C 1059.92 1137.64 1052.33 1142.71 1053.11 1163.3 C 1060.71 1169.44 1066.35 1172.29 1075.35 1176.09 L 1076.16 1177.7 C 1083.61 1192.19 1088.95 1193.55 1085.17 1212.92 C 1082.8 1226.59 1077.25 1254.78 1059.04 1253.86 C 1055.97 1253.71 1051.41 1247.85 1048.4 1249.79 C 1038.78 1255.97 1027.52 1255.12 1016.06 1255.05 C 1009.76 1250.18 1003.51 1245.25 997.31 1240.27 C 997.478 1237.01 998.168 1234 996.401 1231.54 C 992.471 1232.39 989.559 1237.96 987.268 1241.49 C 993.726 1245.94 999.209 1249.74 1006 1253.65 C 1010.8 1256.41 1017.51 1259.2 1021.69 1261.91 C 1029.48 1258.52 1031.4 1258.47 1039.9 1259.14 C 1044.82 1256.24 1047.76 1253.71 1053.37 1255.59 C 1060.23 1257.9 1068.48 1262.71 1074.85 1266.2 C 1075.42 1259.03 1075.23 1247.34 1082.49 1243.55 C 1094.65 1245.68 1095.42 1269.65 1094.72 1279.39 C 1107.92 1271.67 1130.03 1254.54 1143.94 1258.43 C 1155.6 1261.7 1158.78 1270.93 1167.63 1269.15 C 1175.29 1261.61 1171.4 1152.78 1173.1 1133.11 C 1171.1 1129.05 1164.3 1115.41 1164.04 1111.71 C 1163.17 1099.56 1156.99 1066.69 1159.63 1056.73 C 1165.44 1048.79 1183.65 1053.38 1187.59 1062.03 C 1187.87 1068.85 1179.79 1079.91 1182.03 1085.48 C 1188.39 1101.3 1200.05 1115.01 1205.54 1131.73 C 1213.21 1153.84 1214.85 1181.06 1219.84 1203.64 C 1223.34 1219.43 1216.14 1260.66 1227.1 1269.5 C 1242.13 1281.62 1243.11 1279.53 1239.51 1304.51 C 1242.3 1308.6 1247.02 1315.32 1250.95 1318.35 C 1275.02 1336.87 1250.06 1350.09 1278.89 1371.31 C 1278.99 1373.41 1280.18 1389.89 1280.17 1389.95 C 1277.65 1405.15 1271.83 1417.56 1285.69 1430.11 C 1287.21 1431.47 1288.79 1432.77 1290.42 1434 L 1285.7 1444.56 C 1289.93 1460.28 1294.91 1472.99 1301.18 1487.92 C 1306.14 1499.73 1324.73 1507.15 1331.05 1496.19 C 1332.78 1484.23 1330.22 1469.97 1333.09 1458.44 C 1334.71 1451.92 1342.64 1440.22 1345.5 1433.54 C 1353.39 1415.11 1358.15 1416.48 1376.44 1418.76 C 1378.5 1423 1380.05 1427.37 1383.6 1430.25 C 1385.84 1430.55 1387.54 1430.79 1389.36 1428.75 C 1410.09 1405.52 1433.7 1377.48 1440.8 1346.65 C 1442.18 1339.81 1440.12 1313.79 1443.69 1309.09 C 1453.58 1296.07 1474.58 1302.26 1456.93 1278.66 C 1448.68 1267.63 1470.5 1250.39 1475.67 1246.36 C 1481.24 1242.01 1467.25 1228.52 1470.68 1217.84 C 1475.29 1214.09 1481.14 1213.09 1486.75 1210.56 C 1482.75 1184.23 1493.08 1192.98 1511.17 1179.95 C 1497.15 1143.28 1530.33 1168.21 1542.92 1141.76 C 1544.32 1138.81 1549.43 1137.7 1550.49 1133.02 C 1540.62 1114.81 1491.52 1109.52 1501.65 1082.08 C 1503.19 1077.91 1505.07 1072.19 1502.77 1067.9 C 1492.32 1056.83 1480.48 1032.8 1507.03 1033.57 C 1515.46 1024.61 1515.3 1024.47 1527.93 1025.47 C 1529.69 1022.27 1527.15 995.504 1532.42 985.116 C 1541.33 967.52 1542.06 979.686 1549.55 973.339 C 1550.56 963.753 1546.86 958.25 1545 949.324 C 1542.1 935.409 1549.55 914.57 1558.78 904.096 C 1559.98 891.121 1562.81 875.217 1552.59 864.891 C 1542.49 854.696 1539.91 844.09 1546.88 830.964 C 1556.27 813.292 1566.24 795.849 1574.65 777.597 C 1581.25 763.599 1588.68 766.109 1602.12 767.201 C 1608.56 771.34 1611.3 773.845 1616.86 779.265 C 1609.3 805.724 1614.23 812.139 1609.98 837.847 C 1615.55 838.256 1624.93 839.679 1629.61 838.548 C 1636.86 831.78 1617.97 817.325 1620.15 808 C 1624.57 803.844 1637.34 806.373 1643.71 806.916 C 1644.62 803.357 1645.28 798.761 1647.69 796.238 C 1657.42 793.543 1688.01 806.983 1692.89 795.978 C 1698.35 783.645 1681.35 761.941 1680.96 745.568 C 1679.26 737.905 1684.19 729.3 1684.74 722.587 C 1686.38 702.619 1689.98 686.666 1703.93 671.379 C 1708.1 666.801 1712.61 658.272 1719.61 661.027 C 1727.26 671.649 1706.64 691.054 1727.86 720.218 C 1729.15 715.999 1745.16 675.9 1746.84 673.423 C 1750.98 672.459 1755.92 675.024 1759.82 676.719 L 1761.06 676.085 C 1780.73 666.16 1783.35 673.654 1781.95 647.678 C 1769.1 640.373 1742.23 629.443 1744.68 611.906 C 1746.98 608.71 1749.79 608.428 1753.99 606.937 C 1752.56 603.52 1746.41 596.968 1743.36 593.674 C 1734.2 583.808 1735.02 559.985 1736.19 546.322 C 1757 515.273 1765.64 554.074 1769.35 570.668 C 1774.6 576.543 1782.08 581.703 1788.47 586.492 C 1786.72 576.193 1782.73 559.21 1796.41 556.257 C 1800.53 557.243 1798.74 556.287 1801.85 559.482 C 1804.47 566.544 1800.51 580.904 1807.78 582.426 C 1820.31 585.048 1850.55 580.389 1860.22 594.832 C 1862.41 604.044 1856.72 619.285 1855.65 629.131 C 1854.49 639.907 1854.49 657.009 1849.34 666.754 C 1846.46 672.193 1833.18 674.903 1832.66 683.977 L 1833.8 685.483 C 1842.29 685.991 1842.29 683.459 1849.69 689.615 C 1852.98 689.172 1854.95 686.46 1857.48 683.974 C 1860.85 668.601 1859.44 652.091 1858.79 636.622 C 1858.71 634.643 1859.83 634.129 1861.15 633.111 C 1870.09 634.428 1877.35 648.47 1875.37 657.174 C 1872.03 671.863 1862.34 676.716 1877.05 688.384 L 1879.74 698.906 C 1884.11 700.913 1887.88 702.214 1889.21 707.121 C 1892.44 719.084 1889.46 730.301 1890.64 743.485 C 1885.56 748.59 1883.58 749.107 1876.95 751.83 C 1873.28 760.833 1864.36 784.54 1864.19 793.681 C 1863.75 816.887 1864.66 831.459 1859.22 854.832 C 1841.81 868.766 1863.4 871.572 1867.4 879.057 C 1878.11 899.109 1891.1 923.95 1891.39 947.117 C 1891.38 963.893 1892.58 978.235 1890.14 994.543 C 1888.37 1005.16 1876.37 1013.26 1872.84 1021.96 C 1864 1043.79 1872.11 1050.55 1853.49 1068.85 C 1852.76 1071.49 1850.86 1078.12 1851.24 1080.36 C 1854.34 1098.57 1872.97 1108.42 1858.94 1128.93 C 1857.75 1130.68 1850.61 1136.37 1848.41 1138.23 C 1848.74 1155.32 1854.93 1152.58 1862.86 1165.52 C 1877.15 1188.85 1892.82 1207.19 1892.67 1236.04 C 1892.51 1269.5 1867.73 1257.4 1859.22 1285.51 C 1852.23 1291.37 1848.76 1295.11 1840.36 1299.17 C 1852.07 1306.45 1863.03 1314.66 1875.44 1320.91 C 1876.29 1321.34 1877.12 1329.26 1877.24 1330.5 C 1885.39 1337.89 1885.74 1353.87 1875.54 1354.1 C 1867.51 1349.72 1866.83 1341.66 1864.84 1333.46 C 1853.64 1339.62 1849.33 1341.11 1837.72 1345.74 C 1843.36 1350.11 1851.02 1355.72 1856.07 1360.45 C 1850.4 1374.39 1846.38 1388.53 1837.74 1401.57 C 1829.44 1414.09 1825.37 1403.78 1821.14 1422.31 C 1834.75 1440.49 1847.48 1450.55 1843.03 1474.85 C 1840.88 1486.59 1840.06 1491.17 1834.95 1502.42 C 1838.17 1514.55 1836.27 1524.49 1831.2 1535.86 C 1829.62 1539.4 1826.77 1539.32 1823.44 1539.73 C 1814.93 1545.62 1817.48 1572.95 1820.83 1581.85 C 1824.45 1582.45 1828.69 1582.59 1830.7 1585.53 C 1836.01 1593.33 1833.4 1602.2 1831.65 1610.46 C 1828.78 1624.08 1818.5 1633.6 1826.49 1647.01 C 1832.66 1657.36 1839.46 1664.14 1842.35 1675.79 C 1849.08 1675.76 1869.97 1649.11 1888.81 1668.6 C 1895.84 1675.88 1903.05 1689.76 1903.68 1700.3 C 1904.56 1715.03 1885.09 1732.79 1882.89 1739.58 C 1885.69 1742.61 1893.12 1739.36 1891.64 1745.93 C 1887.93 1762.39 1885.03 1774.14 1884.14 1791.13 C 1890.85 1790.6 1903.68 1788.78 1909.22 1791.73 C 1916.92 1802.72 1895.9 1843.7 1888.7 1853.92 C 1886.77 1856.68 1875.33 1863.91 1874.13 1866.36 C 1863.78 1887.44 1853.86 1902.74 1837.87 1919.9 C 1831.97 1926.23 1835.73 1946.47 1822.72 1951.66 C 1805.78 1962.29 1793.86 1968.12 1773.4 1963.08 C 1763.69 1960.84 1757.14 1960.23 1747.11 1960.2 C 1721.33 1960.13 1679.74 1976.68 1661.31 1952.33 C 1656.83 1946.4 1661.29 1938.98 1667.42 1936.32 C 1680.9 1930.48 1696.15 1927.7 1710.43 1923.26 C 1684.12 1886.26 1648.08 1903.49 1611.05 1897.93 C 1607.3 1897.36 1602.05 1891.81 1600.16 1888.83 C 1586.78 1868.33 1582.1 1857.37 1563.39 1840.65 C 1550.48 1842.12 1538.65 1846.18 1526.27 1849.99 L 1527.35 1851.04 C 1541.9 1864.98 1569.53 1857.81 1571.37 1892.36 C 1571.99 1904.02 1571.02 1918.45 1571.04 1930.5 C 1565.07 1940.02 1548.51 1962.68 1536.65 1964.26 C 1515.51 1967.08 1487.97 1962.16 1466.71 1959.01 C 1456.29 1957.47 1445.41 1952.62 1434.78 1951.4 C 1425.61 1949.93 1416.43 1951.64 1407.27 1951.18 C 1393.27 1950.47 1374.78 1955.86 1362.25 1948.65 C 1357.58 1945.96 1355.4 1938.59 1357.82 1933.67 C 1363.32 1928.41 1372.82 1926.75 1380.31 1924.71 C 1351.69 1917.31 1336.23 1911.25 1315.3 1889.19 C 1302.47 1875.67 1296.84 1870.35 1288.93 1852.61 C 1269.01 1861.34 1258.75 1864.24 1236.97 1868.72 C 1208.95 1854.75 1214.6 1849.14 1179.49 1860.22 C 1195.27 1861.81 1203.8 1869.88 1215.43 1880.5 C 1218.04 1882.88 1218.92 1886.03 1219.04 1889.46 C 1217.93 1893.36 1213.21 1896.57 1209.92 1899.33 C 1234.97 1909.68 1245.81 1913.22 1271.13 1900.25 C 1286.34 1902.06 1300.05 1908.57 1312.11 1918.41 C 1313.96 1919.92 1312.67 1925.45 1312.04 1927.48 C 1305.91 1933.91 1291.12 1941.21 1284.04 1946.23 C 1269.75 1956.36 1256.71 1966.5 1243.23 1977.43 C 1237.69 1981.91 1232.32 1989.59 1225.85 1993.68 C 1222.28 1995.93 1217.26 1997.83 1213.23 1997.95 C 1195.06 1998.51 1175.99 1998.93 1157.88 1999.17 C 1147.02 2007.47 1136.66 2015.21 1124.43 2021.52 C 1106.8 2030.61 1091.53 2036.23 1075.44 2048 L 1065.13 2048 C 1049.8 2041.59 1048.87 2034.7 1038.86 2021.63 C 1002.94 2005.82 948.95 2022.03 912.031 2027.72 C 890.67 2032.84 874.962 2031.33 854.961 2021.95 C 838.792 2014.38 812.355 2017.37 830.433 1992.67 C 849.886 1966.1 869.327 1963.97 897.773 1953.9 C 921.015 1945.67 948.888 1941.85 962.809 1921.22 L 963.489 1920.2 C 956.543 1907.05 956.737 1903.98 966.144 1892.87 C 971.285 1888.09 978.14 1884.18 984.173 1880.42 C 978.465 1882.1 973.339 1883.67 967.714 1885.61 C 958.107 1887.96 941.291 1896.11 933.115 1895.14 C 921.838 1893.8 883.16 1880.11 877.845 1871.42 C 872.159 1862.12 882.316 1818.92 884.182 1806.31 C 881.387 1805.55 878.61 1804.55 875.863 1803.61 C 867.445 1835.63 866.903 1835.73 838.943 1852.11 C 835.949 1859.72 834.262 1864.79 832.026 1872.67 C 837.052 1884.13 845.516 1896.56 851.298 1908.76 C 849.382 1920.7 845.108 1940.68 835.209 1949 C 831.766 1951.89 819.31 1953.52 814.343 1954.43 C 790.365 1958.8 772.452 1971.4 756.15 1989.07 C 736.548 1987.08 729.168 1988.17 710.263 1988.65 C 678.22 1989.46 649.18 1990.03 618.016 1999.65 C 603.847 2004.03 592.293 2011.21 578.679 2016.15 L 577.443 2016.59 C 566.791 2011.65 557.019 2006.16 545.619 2002.59 C 538.324 2000.31 531.361 1999.15 524.048 1997.11 C 501.718 2004.97 474.113 2022.23 454.886 2024.65 C 436.323 2026.98 402.65 2025.48 382.996 2025.37 L 259.002 2025.65 L 85.4214 2025.8 C 66.0614 2025.73 33.0476 2027.49 16.0504 2025.8 C 15.8611 2008.37 16.4758 1990.33 18.1642 1972.97 C 17.8332 1966.37 23.8667 1946.8 23.1254 1941.61 C 19.1455 1913.75 28.558 1889.94 33.3792 1862.95 C 34.677 1852.9 35.0899 1842.9 36.7418 1832.89 C 41.0767 1806.63 64.2775 1767.68 86.737 1753.01 C 51.8479 1731.13 33.184 1690.69 30.7335 1650.1 C 28.7816 1617.76 36.732 1562.59 69.6067 1547.83 C 83.1155 1541.77 87.7635 1529.77 94.0083 1516.75 C 93.6239 1514.15 83.4249 1513.66 81.9555 1510.42 C 68.7937 1481.38 89.6004 1458.6 107.82 1441.78 C 110.759 1423.82 97.5594 1400.06 92.131 1383.37 C 82.6003 1354.06 74.8007 1327.91 52.8112 1305.55 C 33.7747 1286.2 46.3522 1263.91 47.2605 1241.43 C 46.6533 1231.85 44.9342 1222.35 44.3196 1212.77 C 42.9435 1191.33 41.8995 1168.02 41.4758 1146.71 C 41.1655 1131.11 51.691 1113.6 51.9461 1096.59 C 52.6402 1050.32 36.0845 1009.38 15.4437 968.913 C 9.81459 957.838 5.63655 945.761 0 934.531 L 0 323.992 z M 949.882 1150.3 C 947.861 1151.78 947.636 1152.14 946.535 1154.4 C 946.281 1164.51 965.278 1172.69 972.952 1169.09 C 970.014 1166.18 954.924 1162.42 955.976 1156.61 C 957.735 1146.91 973.955 1131 969.087 1118.57 C 964.215 1115.71 955.408 1117.28 950.947 1114.46 C 947.453 1112.25 941.21 1105.19 938.435 1101.78 C 927.29 1088.07 915.151 1091.78 899.576 1087.34 C 881.532 1092.32 878.48 1096.33 862.419 1105.58 C 860.499 1109.94 858.225 1116.96 854.572 1119.26 C 849.833 1117.17 845.712 1104.86 843.772 1099.9 C 842.15 1095.71 840.575 1091.49 839.046 1087.26 C 835.552 1084.83 833.245 1083.15 830.364 1079.98 C 819.806 1068.4 819.542 1046.61 800.95 1046.99 C 804.396 1051.12 806.033 1051.56 810.859 1054.01 C 812.543 1056.91 821.952 1072.59 821.869 1073.15 C 818.74 1093.92 835.817 1085.76 840.052 1097.35 C 846.778 1115.76 851.984 1132.06 860.872 1149.44 C 862.802 1153.25 862.398 1161.48 864.54 1165.85 C 864.79 1151.27 858.554 1115.14 870.334 1105.27 C 883.845 1093.95 896.892 1091.34 912.373 1100.81 C 916.003 1098.85 919.253 1097.13 922.978 1095.36 C 935.779 1103.7 938.627 1112.19 942.564 1126.41 C 948.986 1124.82 958.591 1122.17 964.857 1121.24 C 961.363 1132.41 958.827 1142.33 949.882 1150.3 z M 991.466 1171.04 C 997.559 1179.3 1006.06 1189.92 1009.48 1199.3 C 1009.08 1203.23 1007.36 1212.44 1008.58 1215.17 L 1011.38 1213.66 C 1014.72 1207.84 1015.2 1206.39 1013.23 1199.49 C 1010.3 1189.18 1002.11 1174.59 991.466 1171.04 z M 755.212 1182.57 C 750.565 1198.63 749.596 1218.06 744.649 1235.77 C 749.974 1234.98 751.031 1234.67 756.261 1235.22 C 760.914 1236.4 764.407 1237.29 769.212 1237.99 C 762.856 1226.76 759.296 1219.59 757.442 1206.53 C 756.395 1199.15 758.011 1188.43 755.212 1182.57 z M 741.267 1246.7 C 735.113 1259.29 731.731 1269.45 717.299 1273.82 C 701.891 1278.48 686.001 1283.78 670.322 1287.48 C 665.827 1288.53 655.532 1288.67 653.87 1291.24 C 650.627 1296.26 635.584 1297.33 633.286 1300.84 C 633.927 1302.88 634.478 1304.67 635.227 1306.69 C 641.106 1306.34 638.996 1301.81 646.007 1300.78 C 668.755 1297.44 688.026 1286.01 709.669 1280.34 C 713.882 1279.25 726.348 1279.72 731.198 1279.75 C 734.008 1272.89 742.673 1253.04 741.267 1246.7 z"/>
<path transform="translate(0,0)" fill="rgb(253,252,253)" fill-opacity="0.0117647" d="M 967.714 1885.61 C 973.339 1883.67 978.465 1882.1 984.173 1880.42 C 978.14 1884.18 971.285 1888.09 966.144 1892.87 C 962.962 1888.03 967.935 1890.5 967.714 1885.61 z"/>
</svg>